# xmcd
#
# Track frame offsets:
#	150
#	13800
#	26330
#	42180
#	57362
#	69065
#	82547
#	95540
#	112400
#	125105
#	140740
#	152852
#	165720
#	179810
#
# Disc length: 2551
#
# Revision: 1
# Processed by: cddbd v1.5.1PL0 Copyright (c) Steve Scherf et al.
# Submitted via: VisiTrax 2.9.5.180 - For more info visit www.synapsa.com
# Normalized: r0:DSETVAR1
#
DISCID=c009f50e
DTITLE=Various Artist - Mr. Music Countr 02-95
DYEAR=1995
DGENRE=
TTITLE0=Billy Don Burns - That's all right
TTITLE1=Brooks and Dunn - Whiskey under the bridge
TTITLE2=Todd Cordle - Hide and seek
TTITLE3=Sweethearts of the Rodeo - Steel rail blues
TTITLE4=David Bolles - Lonesome city-population one
TTITLE5=Linda Davis - He's in Dallas
TTITLE6=Tractors - Settin' the woods on fire
TTITLE7=Alan Jackson - Livin' on love
TTITLE8=Gary Nichols - Doug house
TTITLE9=Michelle Wright - The wall
TTITLE10=Darrell McCall - Hide and go cheat
TTITLE11=Kathy Kallick - Red shirt
TTITLE12=Mark Middler - In my dreams
TTITLE13=Tommy Cash - Jeannie C Riley - Winners
EXTD=
EXTT0=
EXTT1=
EXTT2=
EXTT3=
EXTT4=
EXTT5=
EXTT6=
EXTT7=
EXTT8=
EXTT9=
EXTT10=
EXTT11=
EXTT12=
EXTT13=
PLAYORDER=
